<svg aria-hidden="true" style="position: absolute; width: 0; height: 0; overflow: hidden;" version="1.1" xmlns="http://www.w3.org/2000/svg" xmlns:xlink="http://www.w3.org/1999/xlink">
<defs>
<symbol id="icon-sun" viewBox="0 0 55 32">
<path stroke-linejoin="miter" stroke-linecap="butt" stroke-miterlimit="4" stroke-width="1.1204" d="M49.394 31.372c0-2.649-0.565-5.271-1.663-7.718s-2.707-4.67-4.736-6.543c-2.029-1.873-4.437-3.358-7.088-4.372s-5.492-1.535-8.361-1.535c-2.869 0-5.71 0.522-8.361 1.535s-5.059 2.499-7.088 4.372c-2.029 1.873-3.638 4.096-4.736 6.543s-1.663 5.069-1.663 7.718"></path>
<path stroke-linejoin="miter" stroke-linecap="butt" stroke-miterlimit="4" stroke-width="1.1204" d="M8.498 15.126l-7.843-4.482"></path>
<path stroke-linejoin="miter" stroke-linecap="butt" stroke-miterlimit="4" stroke-width="1.1204" d="M27.545 7.843v-7.843"></path>
<path stroke-linejoin="miter" stroke-linecap="butt" stroke-miterlimit="4" stroke-width="1.1204" d="M46.875 15.2l7.843-4.482"></path>
</symbol>
<symbol id="icon-name" viewBox="0 0 72 32">
<path d="M13.554 28.596v-6.397h0.588v1.753l-0.061-0.196c0.18-0.515 0.482-0.911 0.907-1.189s0.956-0.417 1.593-0.417v0.601c-0.024 0-0.049 0-0.074 0-0.024-0.008-0.049-0.012-0.074-0.012-0.711 0-1.266 0.225-1.667 0.674-0.4 0.441-0.601 1.058-0.601 1.851v3.333h-0.613zM20.808 28.645c-0.645 0-1.217-0.139-1.716-0.417-0.49-0.278-0.878-0.662-1.164-1.152-0.278-0.49-0.417-1.050-0.417-1.679 0-0.637 0.131-1.197 0.392-1.679 0.27-0.49 0.637-0.874 1.103-1.152s0.989-0.417 1.569-0.417c0.58 0 1.099 0.135 1.556 0.404 0.466 0.27 0.829 0.65 1.091 1.14 0.27 0.482 0.404 1.042 0.404 1.679 0 0.024-0.004 0.053-0.012 0.086 0 0.024 0 0.053 0 0.086h-5.65v-0.478h5.319l-0.245 0.233c0.008-0.498-0.098-0.944-0.319-1.336-0.212-0.4-0.502-0.711-0.87-0.931-0.368-0.229-0.793-0.343-1.275-0.343-0.474 0-0.899 0.114-1.275 0.343-0.368 0.221-0.658 0.531-0.87 0.931-0.212 0.392-0.319 0.842-0.319 1.348v0.11c0 0.523 0.114 0.989 0.343 1.397 0.237 0.4 0.56 0.715 0.968 0.944 0.409 0.221 0.874 0.331 1.397 0.331 0.409 0 0.788-0.074 1.14-0.221 0.36-0.147 0.662-0.372 0.907-0.674l0.355 0.404c-0.278 0.343-0.629 0.605-1.054 0.784-0.417 0.172-0.87 0.257-1.36 0.257zM33.488 22.149c0.515 0 0.96 0.102 1.336 0.306 0.384 0.196 0.682 0.498 0.895 0.907 0.212 0.4 0.319 0.899 0.319 1.495v3.738h-0.613v-3.689c0-0.719-0.176-1.266-0.527-1.642s-0.842-0.564-1.471-0.564c-0.482 0-0.899 0.102-1.25 0.306s-0.621 0.49-0.809 0.858c-0.188 0.368-0.282 0.809-0.282 1.324v3.407h-0.613v-3.689c0-0.719-0.176-1.266-0.527-1.642s-0.842-0.564-1.471-0.564c-0.482 0-0.899 0.102-1.25 0.306s-0.621 0.49-0.809 0.858c-0.188 0.368-0.282 0.809-0.282 1.324v3.407h-0.613v-6.397h0.588v1.765l-0.086-0.196c0.188-0.498 0.502-0.891 0.944-1.177 0.441-0.294 0.972-0.441 1.593-0.441 0.637 0 1.172 0.163 1.605 0.49 0.441 0.319 0.719 0.797 0.833 1.434l-0.208-0.086c0.172-0.547 0.494-0.989 0.968-1.324 0.474-0.343 1.050-0.515 1.728-0.515zM41.068 28.645c-0.613 0-1.16-0.139-1.642-0.417-0.474-0.278-0.854-0.662-1.14-1.152-0.278-0.49-0.417-1.050-0.417-1.679 0-0.637 0.139-1.197 0.417-1.679 0.286-0.49 0.666-0.874 1.14-1.152 0.482-0.278 1.029-0.417 1.642-0.417s1.16 0.139 1.642 0.417c0.482 0.278 0.862 0.662 1.14 1.152 0.278 0.482 0.417 1.042 0.417 1.679 0 0.629-0.139 1.189-0.417 1.679s-0.658 0.874-1.14 1.152c-0.482 0.278-1.029 0.417-1.642 0.417zM41.068 28.093c0.49 0 0.931-0.11 1.324-0.331 0.392-0.229 0.699-0.547 0.919-0.956s0.331-0.878 0.331-1.409c0-0.539-0.11-1.009-0.331-1.409-0.221-0.409-0.527-0.723-0.919-0.944-0.392-0.229-0.833-0.343-1.324-0.343s-0.931 0.114-1.324 0.343c-0.384 0.221-0.69 0.535-0.919 0.944-0.221 0.4-0.331 0.87-0.331 1.409 0 0.531 0.11 1.001 0.331 1.409 0.229 0.409 0.535 0.727 0.919 0.956 0.392 0.221 0.833 0.331 1.324 0.331zM48.030 28.645c-0.564 0-0.997-0.155-1.299-0.466-0.294-0.31-0.441-0.735-0.441-1.275v-6.103h0.613v6.042c0 0.409 0.102 0.723 0.306 0.944s0.498 0.331 0.882 0.331c0.4 0 0.731-0.118 0.993-0.355l0.257 0.429c-0.163 0.155-0.364 0.27-0.6 0.343-0.229 0.074-0.466 0.11-0.711 0.11zM45.113 22.725v-0.527h3.824v0.527h-3.824zM53.421 28.645c-0.645 0-1.217-0.139-1.716-0.417-0.49-0.278-0.878-0.662-1.164-1.152-0.278-0.49-0.417-1.050-0.417-1.679 0-0.637 0.131-1.197 0.392-1.679 0.27-0.49 0.637-0.874 1.103-1.152s0.989-0.417 1.569-0.417c0.58 0 1.099 0.135 1.556 0.404 0.466 0.27 0.829 0.65 1.091 1.14 0.27 0.482 0.404 1.042 0.404 1.679 0 0.024-0.004 0.053-0.012 0.086 0 0.024 0 0.053 0 0.086h-5.65v-0.478h5.319l-0.245 0.233c0.008-0.498-0.098-0.944-0.319-1.336-0.212-0.4-0.502-0.711-0.87-0.931-0.368-0.229-0.792-0.343-1.275-0.343-0.474 0-0.899 0.114-1.275 0.343-0.368 0.221-0.658 0.531-0.87 0.931-0.212 0.392-0.319 0.842-0.319 1.348v0.11c0 0.523 0.114 0.989 0.343 1.397 0.237 0.4 0.56 0.715 0.968 0.944 0.408 0.221 0.874 0.331 1.397 0.331 0.408 0 0.788-0.074 1.14-0.221 0.359-0.147 0.662-0.372 0.907-0.674l0.355 0.404c-0.278 0.343-0.629 0.605-1.054 0.784-0.417 0.172-0.87 0.257-1.36 0.257z"></path>
<path d="M5.262 17.124c-0.891 0-1.748-0.143-2.571-0.428-0.811-0.297-1.44-0.674-1.885-1.131l0.497-0.977c0.423 0.411 0.988 0.76 1.697 1.046 0.72 0.274 1.474 0.411 2.262 0.411 0.754 0 1.365-0.091 1.834-0.274 0.48-0.194 0.828-0.451 1.046-0.771 0.229-0.32 0.343-0.674 0.343-1.063 0-0.469-0.137-0.846-0.411-1.131-0.263-0.286-0.611-0.508-1.046-0.668-0.434-0.171-0.914-0.32-1.44-0.446s-1.051-0.257-1.577-0.394c-0.526-0.149-1.011-0.343-1.457-0.583-0.434-0.24-0.788-0.554-1.063-0.943-0.263-0.4-0.394-0.92-0.394-1.56 0-0.594 0.154-1.137 0.463-1.628 0.32-0.503 0.806-0.903 1.457-1.2 0.651-0.308 1.485-0.463 2.502-0.463 0.674 0 1.343 0.097 2.005 0.291 0.663 0.183 1.234 0.44 1.714 0.771l-0.428 1.011c-0.514-0.343-1.063-0.594-1.645-0.754-0.571-0.16-1.125-0.24-1.663-0.24-0.72 0-1.314 0.097-1.783 0.291s-0.817 0.457-1.046 0.788c-0.217 0.32-0.326 0.686-0.326 1.097 0 0.469 0.131 0.846 0.394 1.131 0.274 0.286 0.628 0.508 1.063 0.668 0.446 0.16 0.931 0.303 1.457 0.428s1.046 0.263 1.56 0.411c0.526 0.149 1.006 0.343 1.44 0.583 0.446 0.229 0.8 0.537 1.063 0.926 0.274 0.389 0.411 0.897 0.411 1.525 0 0.583-0.16 1.126-0.48 1.628-0.32 0.491-0.811 0.891-1.474 1.2-0.651 0.297-1.491 0.446-2.52 0.446zM17.881 17.021v-1.988l-0.051-0.326v-3.325c0-0.766-0.217-1.354-0.651-1.765-0.423-0.411-1.057-0.617-1.903-0.617-0.583 0-1.137 0.097-1.663 0.291s-0.971 0.451-1.337 0.771l-0.549-0.908c0.457-0.389 1.006-0.686 1.645-0.891 0.64-0.217 1.314-0.326 2.023-0.326 1.165 0 2.063 0.291 2.691 0.874 0.64 0.571 0.96 1.445 0.96 2.622v5.588h-1.166zM14.779 17.107c-0.674 0-1.263-0.109-1.765-0.326-0.491-0.229-0.868-0.537-1.131-0.926-0.263-0.4-0.394-0.857-0.394-1.371 0-0.469 0.109-0.891 0.326-1.268 0.229-0.389 0.594-0.697 1.097-0.926 0.514-0.24 1.2-0.36 2.057-0.36h3.102v0.908h-3.068c-0.868 0-1.474 0.154-1.817 0.463-0.331 0.309-0.497 0.691-0.497 1.148 0 0.514 0.2 0.926 0.6 1.234s0.96 0.463 1.68 0.463c0.686 0 1.274-0.154 1.765-0.463 0.503-0.32 0.868-0.777 1.097-1.371l0.274 0.84c-0.229 0.594-0.628 1.068-1.2 1.423-0.56 0.354-1.268 0.531-2.125 0.531zM22.352 17.021v-8.998h1.165v2.451l-0.12-0.428c0.251-0.686 0.674-1.206 1.268-1.56 0.594-0.366 1.331-0.548 2.211-0.548v1.183c-0.046 0-0.091 0-0.137 0-0.046-0.011-0.091-0.017-0.137-0.017-0.948 0-1.691 0.291-2.228 0.874-0.537 0.571-0.806 1.388-0.806 2.451v4.593h-1.217zM32.596 17.107c-0.857 0-1.628-0.194-2.314-0.583-0.674-0.389-1.206-0.926-1.594-1.611-0.389-0.697-0.583-1.497-0.583-2.4 0-0.914 0.194-1.714 0.583-2.4s0.92-1.217 1.594-1.594c0.686-0.389 1.457-0.583 2.314-0.583 0.788 0 1.491 0.177 2.108 0.531 0.629 0.354 1.126 0.874 1.491 1.56 0.377 0.674 0.566 1.503 0.566 2.485 0 0.971-0.183 1.8-0.548 2.485s-0.863 1.211-1.491 1.577c-0.617 0.354-1.325 0.531-2.125 0.531zM32.682 16.027c0.64 0 1.211-0.143 1.714-0.429 0.514-0.297 0.914-0.708 1.2-1.234 0.297-0.537 0.446-1.154 0.446-1.851 0-0.709-0.149-1.325-0.446-1.851-0.286-0.526-0.686-0.931-1.2-1.217-0.503-0.297-1.074-0.446-1.714-0.446-0.629 0-1.194 0.149-1.697 0.446-0.503 0.286-0.903 0.691-1.2 1.217s-0.446 1.143-0.446 1.851c0 0.697 0.149 1.314 0.446 1.851 0.297 0.526 0.697 0.937 1.2 1.234 0.503 0.286 1.068 0.429 1.697 0.429zM36.075 17.021v-2.708l0.12-1.817-0.171-1.817v-6.376h1.217v12.718h-1.165zM40.63 17.021v-8.998h1.217v8.998h-1.217zM41.247 6.035c-0.251 0-0.463-0.086-0.634-0.257s-0.257-0.377-0.257-0.617 0.086-0.44 0.257-0.6c0.171-0.171 0.383-0.257 0.634-0.257s0.463 0.080 0.634 0.24c0.171 0.16 0.257 0.36 0.257 0.6 0 0.251-0.086 0.463-0.257 0.634-0.16 0.171-0.371 0.257-0.634 0.257zM49.826 7.937c0.731 0 1.371 0.143 1.92 0.428 0.56 0.274 0.994 0.697 1.303 1.268 0.32 0.571 0.48 1.291 0.48 2.16v5.228h-1.217v-5.108c0-0.948-0.24-1.663-0.72-2.143-0.468-0.491-1.131-0.737-1.988-0.737-0.64 0-1.2 0.131-1.68 0.394-0.468 0.251-0.834 0.623-1.097 1.114-0.251 0.48-0.377 1.063-0.377 1.748v4.731h-1.217v-8.998h1.165v2.468l-0.189-0.463c0.286-0.651 0.743-1.16 1.371-1.525 0.628-0.377 1.377-0.566 2.245-0.566zM56.816 17.021v-8.998h1.217v8.998h-1.217zM57.433 6.035c-0.251 0-0.463-0.086-0.634-0.257s-0.257-0.377-0.257-0.617c0-0.24 0.086-0.44 0.257-0.6 0.171-0.171 0.383-0.257 0.634-0.257s0.463 0.080 0.634 0.24c0.171 0.16 0.257 0.36 0.257 0.6 0 0.251-0.086 0.463-0.257 0.634-0.16 0.171-0.371 0.257-0.634 0.257zM59.756 17.021l5.485-11.998h1.251l5.485 11.998h-1.337l-5.039-11.261h0.514l-5.039 11.261h-1.32zM61.916 13.816l0.377-1.028h6.976l0.376 1.028h-7.73z"></path>
</symbol>
<symbol id="icon-airbnb1" viewBox="0 0 32 32">
<path d="M28.392 21.564c-0.139-0.332-0.277-0.692-0.416-0.997-0.221-0.498-0.443-0.969-0.637-1.412l-0.028-0.028c-1.911-4.154-3.96-8.363-6.12-12.516l-0.083-0.166c-0.222-0.415-0.443-0.858-0.665-1.301-0.277-0.498-0.554-1.025-0.997-1.523-0.886-1.108-2.16-1.717-3.517-1.717-1.385 0-2.631 0.609-3.545 1.661-0.415 0.499-0.72 1.025-0.997 1.523-0.222 0.443-0.443 0.886-0.665 1.301l-0.083 0.166c-2.132 4.154-4.209 8.363-6.12 12.516l-0.028 0.055c-0.194 0.443-0.415 0.914-0.637 1.412-0.138 0.305-0.277 0.637-0.415 0.997-0.36 1.025-0.471 1.994-0.332 2.991 0.305 2.077 1.689 3.821 3.6 4.597 0.72 0.304 1.468 0.443 2.243 0.443 0.222 0 0.499-0.028 0.72-0.055 0.914-0.111 1.855-0.415 2.769-0.942 1.135-0.637 2.215-1.551 3.434-2.88 1.218 1.329 2.326 2.243 3.434 2.88 0.914 0.526 1.855 0.831 2.769 0.942 0.222 0.028 0.499 0.055 0.72 0.055 0.775 0 1.551-0.139 2.243-0.443 1.938-0.775 3.295-2.548 3.6-4.597 0.222-0.969 0.111-1.938-0.249-2.963zM15.903 23.004c-1.495-1.883-2.464-3.655-2.797-5.151-0.139-0.637-0.166-1.191-0.083-1.689 0.055-0.443 0.222-0.831 0.443-1.163 0.526-0.748 1.412-1.218 2.437-1.218s1.938 0.443 2.437 1.218c0.222 0.332 0.388 0.72 0.443 1.163 0.083 0.498 0.055 1.080-0.083 1.689-0.332 1.468-1.302 3.24-2.797 5.151zM26.952 24.305c-0.194 1.44-1.163 2.686-2.52 3.24-0.665 0.277-1.385 0.36-2.105 0.277-0.692-0.083-1.385-0.305-2.105-0.72-0.997-0.554-1.994-1.412-3.157-2.686 1.828-2.243 2.935-4.292 3.351-6.12 0.194-0.859 0.222-1.634 0.139-2.354-0.111-0.692-0.36-1.329-0.748-1.883-0.859-1.246-2.298-1.966-3.905-1.966s-3.046 0.748-3.905 1.966c-0.388 0.554-0.637 1.191-0.748 1.883-0.111 0.72-0.083 1.523 0.139 2.354 0.415 1.828 1.551 3.904 3.351 6.147-1.135 1.274-2.16 2.132-3.157 2.686-0.72 0.415-1.412 0.637-2.105 0.72-0.748 0.083-1.468-0.028-2.105-0.277-1.357-0.554-2.326-1.8-2.52-3.24-0.083-0.692-0.028-1.385 0.249-2.16 0.083-0.277 0.221-0.554 0.36-0.886 0.194-0.443 0.415-0.914 0.637-1.385l0.028-0.055c1.911-4.126 3.96-8.335 6.092-12.434l0.083-0.166c0.221-0.415 0.443-0.859 0.665-1.274 0.221-0.443 0.471-0.858 0.775-1.218 0.582-0.665 1.357-1.025 2.215-1.025s1.634 0.36 2.215 1.025c0.304 0.36 0.554 0.775 0.775 1.218 0.221 0.415 0.443 0.858 0.665 1.274l0.083 0.166c2.105 4.126 4.154 8.335 6.065 12.461v0.028c0.221 0.443 0.415 0.942 0.637 1.385 0.139 0.332 0.277 0.609 0.36 0.886 0.222 0.72 0.305 1.412 0.194 2.132z"></path>
</symbol>
<symbol id="icon-icon" viewBox="0 0 55 32">
<path fill="none" stroke="#180303" style="stroke: var(--color1, #180303)" stroke-linejoin="miter" stroke-linecap="butt" stroke-miterlimit="4" stroke-width="0.4605" d="M34.765 12.893c0-1.088-0.232-2.166-0.684-3.172s-1.113-1.919-1.946-2.689c-0.834-0.77-1.824-1.38-2.913-1.797s-2.257-0.631-3.436-0.631c-1.179 0-2.347 0.214-3.436 0.631s-2.079 1.027-2.913 1.797c-0.834 0.77-1.495 1.683-1.946 2.689s-0.683 2.083-0.683 3.172"></path>
<path fill="none" stroke="#180303" style="stroke: var(--color1, #180303)" stroke-linejoin="miter" stroke-linecap="butt" stroke-miterlimit="4" stroke-width="0.4605" d="M17.958 6.216l-3.223-1.842"></path>
<path fill="none" stroke="#180303" style="stroke: var(--color1, #180303)" stroke-linejoin="miter" stroke-linecap="butt" stroke-miterlimit="4" stroke-width="0.4605" d="M25.786 3.223v-3.223"></path>
<path fill="none" stroke="#180303" style="stroke: var(--color1, #180303)" stroke-linejoin="miter" stroke-linecap="butt" stroke-miterlimit="4" stroke-width="0.4605" d="M33.73 6.247l3.223-1.842"></path>
<path d="M12.234 29.808v-4.119h0.379v1.128l-0.039-0.126c0.116-0.331 0.31-0.587 0.584-0.765s0.615-0.268 1.026-0.268v0.387c-0.016 0-0.032 0-0.047 0-0.016-0.005-0.032-0.008-0.047-0.008-0.458 0-0.815 0.145-1.073 0.434-0.258 0.284-0.387 0.681-0.387 1.191v2.146h-0.395zM16.904 29.84c-0.416 0-0.784-0.089-1.105-0.268-0.316-0.179-0.565-0.426-0.75-0.742-0.179-0.316-0.268-0.676-0.268-1.081 0-0.41 0.084-0.771 0.252-1.081 0.174-0.316 0.41-0.563 0.71-0.742s0.636-0.268 1.010-0.268c0.373 0 0.707 0.087 1.002 0.26 0.3 0.174 0.534 0.418 0.702 0.734 0.174 0.31 0.26 0.671 0.26 1.081 0 0.016-0.003 0.034-0.008 0.055 0 0.016 0 0.034 0 0.055h-3.637v-0.308h3.424l-0.158 0.15c0.005-0.321-0.063-0.608-0.205-0.86-0.137-0.258-0.323-0.458-0.56-0.6-0.237-0.147-0.51-0.221-0.821-0.221-0.305 0-0.579 0.074-0.821 0.221-0.237 0.142-0.423 0.342-0.56 0.6-0.137 0.253-0.205 0.542-0.205 0.868v0.071c0 0.337 0.074 0.637 0.221 0.899 0.153 0.258 0.36 0.46 0.623 0.608 0.263 0.142 0.563 0.213 0.899 0.213 0.263 0 0.508-0.047 0.734-0.142 0.231-0.095 0.426-0.239 0.584-0.434l0.229 0.26c-0.179 0.221-0.405 0.389-0.679 0.505-0.268 0.11-0.56 0.166-0.876 0.166zM25.068 25.658c0.331 0 0.618 0.066 0.86 0.197 0.247 0.126 0.439 0.321 0.576 0.584 0.137 0.258 0.205 0.579 0.205 0.963v2.407h-0.395v-2.375c0-0.463-0.113-0.815-0.339-1.057s-0.542-0.363-0.947-0.363c-0.31 0-0.579 0.066-0.805 0.197s-0.4 0.316-0.521 0.552c-0.121 0.237-0.181 0.521-0.181 0.852v2.194h-0.395v-2.375c0-0.463-0.113-0.815-0.339-1.057s-0.542-0.363-0.947-0.363c-0.31 0-0.579 0.066-0.805 0.197s-0.4 0.316-0.521 0.552c-0.121 0.237-0.181 0.521-0.181 0.852v2.194h-0.395v-4.119h0.379v1.136l-0.055-0.126c0.121-0.321 0.323-0.573 0.608-0.757 0.284-0.189 0.626-0.284 1.026-0.284 0.41 0 0.755 0.105 1.034 0.316 0.284 0.205 0.463 0.513 0.537 0.923l-0.134-0.055c0.11-0.352 0.318-0.637 0.623-0.852 0.305-0.221 0.676-0.331 1.113-0.331zM29.948 29.84c-0.395 0-0.747-0.089-1.057-0.268-0.305-0.179-0.55-0.426-0.734-0.742-0.179-0.316-0.268-0.676-0.268-1.081 0-0.41 0.089-0.771 0.268-1.081 0.184-0.316 0.429-0.563 0.734-0.742 0.31-0.179 0.663-0.268 1.057-0.268s0.747 0.089 1.057 0.268c0.31 0.179 0.555 0.426 0.734 0.742 0.179 0.31 0.268 0.671 0.268 1.081 0 0.405-0.089 0.765-0.268 1.081s-0.423 0.563-0.734 0.742c-0.31 0.179-0.663 0.268-1.057 0.268zM29.948 29.485c0.316 0 0.6-0.071 0.852-0.213 0.253-0.147 0.45-0.352 0.592-0.615s0.213-0.565 0.213-0.907c0-0.347-0.071-0.65-0.213-0.907-0.142-0.263-0.339-0.466-0.592-0.608-0.253-0.147-0.537-0.221-0.852-0.221s-0.6 0.074-0.852 0.221c-0.247 0.142-0.445 0.345-0.592 0.608-0.142 0.258-0.213 0.56-0.213 0.907 0 0.342 0.071 0.644 0.213 0.907 0.147 0.263 0.345 0.468 0.592 0.615 0.253 0.142 0.537 0.213 0.852 0.213zM34.43 29.84c-0.363 0-0.642-0.1-0.836-0.3-0.189-0.2-0.284-0.473-0.284-0.821v-3.929h0.395v3.89c0 0.263 0.066 0.466 0.197 0.608s0.321 0.213 0.568 0.213c0.258 0 0.471-0.076 0.639-0.229l0.166 0.276c-0.105 0.1-0.234 0.174-0.387 0.221-0.147 0.047-0.3 0.071-0.458 0.071zM32.553 26.029v-0.339h2.462v0.339h-2.462zM37.901 29.84c-0.416 0-0.784-0.089-1.105-0.268-0.316-0.179-0.565-0.426-0.75-0.742-0.179-0.316-0.268-0.676-0.268-1.081 0-0.41 0.084-0.771 0.252-1.081 0.174-0.316 0.41-0.563 0.71-0.742s0.636-0.268 1.010-0.268c0.373 0 0.708 0.087 1.002 0.26 0.3 0.174 0.534 0.418 0.702 0.734 0.174 0.31 0.26 0.671 0.26 1.081 0 0.016-0.003 0.034-0.008 0.055 0 0.016 0 0.034 0 0.055h-3.637v-0.308h3.424l-0.158 0.15c0.005-0.321-0.063-0.608-0.205-0.86-0.137-0.258-0.324-0.458-0.56-0.6-0.237-0.147-0.51-0.221-0.821-0.221-0.305 0-0.579 0.074-0.821 0.221-0.237 0.142-0.423 0.342-0.56 0.6-0.137 0.253-0.205 0.542-0.205 0.868v0.071c0 0.337 0.074 0.637 0.221 0.899 0.153 0.258 0.36 0.46 0.623 0.608 0.263 0.142 0.563 0.213 0.9 0.213 0.263 0 0.508-0.047 0.734-0.142 0.231-0.095 0.426-0.239 0.584-0.434l0.229 0.26c-0.179 0.221-0.405 0.389-0.679 0.505-0.268 0.11-0.56 0.166-0.876 0.166z"></path>
<path d="M6.895 22.861c-0.574 0-1.126-0.092-1.655-0.276-0.522-0.191-0.927-0.434-1.214-0.728l0.32-0.629c0.272 0.265 0.636 0.489 1.093 0.673 0.463 0.177 0.949 0.265 1.457 0.265 0.486 0 0.879-0.059 1.181-0.177 0.309-0.125 0.533-0.291 0.673-0.497 0.147-0.206 0.221-0.434 0.221-0.684 0-0.302-0.088-0.544-0.265-0.728-0.169-0.184-0.394-0.327-0.673-0.43-0.28-0.11-0.589-0.206-0.927-0.287s-0.677-0.166-1.015-0.254c-0.338-0.096-0.651-0.221-0.938-0.375-0.28-0.155-0.508-0.357-0.684-0.607-0.169-0.258-0.254-0.592-0.254-1.004 0-0.383 0.099-0.732 0.298-1.048 0.206-0.324 0.519-0.581 0.938-0.772 0.419-0.199 0.956-0.298 1.611-0.298 0.434 0 0.864 0.063 1.291 0.188 0.427 0.118 0.795 0.283 1.104 0.497l-0.276 0.651c-0.331-0.221-0.684-0.383-1.059-0.486-0.368-0.103-0.725-0.154-1.070-0.154-0.463 0-0.846 0.063-1.148 0.188s-0.526 0.294-0.673 0.508c-0.14 0.206-0.21 0.441-0.21 0.706 0 0.302 0.085 0.544 0.254 0.728 0.177 0.184 0.405 0.327 0.684 0.43 0.287 0.103 0.6 0.195 0.938 0.276s0.673 0.169 1.004 0.265c0.338 0.096 0.647 0.221 0.927 0.375 0.287 0.147 0.515 0.346 0.684 0.596 0.177 0.25 0.265 0.578 0.265 0.982 0 0.375-0.103 0.725-0.309 1.048-0.206 0.316-0.522 0.574-0.949 0.772-0.419 0.191-0.96 0.287-1.622 0.287zM15.019 22.795v-1.28l-0.033-0.21v-2.141c0-0.493-0.14-0.872-0.419-1.137-0.272-0.265-0.681-0.397-1.225-0.397-0.375 0-0.732 0.063-1.070 0.188s-0.625 0.291-0.861 0.497l-0.353-0.585c0.294-0.25 0.647-0.441 1.059-0.574 0.412-0.14 0.846-0.21 1.302-0.21 0.75 0 1.328 0.188 1.732 0.563 0.412 0.368 0.618 0.931 0.618 1.688v3.598h-0.75zM13.022 22.85c-0.434 0-0.813-0.070-1.137-0.21-0.316-0.147-0.559-0.346-0.728-0.596-0.169-0.258-0.254-0.552-0.254-0.883 0-0.302 0.070-0.574 0.21-0.817 0.147-0.25 0.383-0.449 0.706-0.596 0.331-0.154 0.772-0.232 1.324-0.232h1.997v0.585h-1.975c-0.559 0-0.949 0.099-1.17 0.298-0.213 0.199-0.32 0.445-0.32 0.739 0 0.331 0.129 0.596 0.386 0.795s0.618 0.298 1.081 0.298c0.441 0 0.82-0.099 1.137-0.298 0.324-0.206 0.559-0.5 0.706-0.883l0.177 0.541c-0.147 0.383-0.405 0.688-0.772 0.916-0.361 0.228-0.817 0.342-1.368 0.342zM17.898 22.795v-5.794h0.75v1.578l-0.077-0.276c0.162-0.441 0.434-0.776 0.817-1.004 0.383-0.235 0.857-0.353 1.424-0.353v0.761c-0.029 0-0.059 0-0.088 0-0.029-0.007-0.059-0.011-0.088-0.011-0.611 0-1.089 0.188-1.435 0.563-0.346 0.368-0.519 0.894-0.519 1.578v2.957h-0.783zM24.493 22.85c-0.552 0-1.048-0.125-1.49-0.375-0.434-0.25-0.776-0.596-1.026-1.037-0.25-0.449-0.375-0.964-0.375-1.545 0-0.589 0.125-1.104 0.375-1.545s0.592-0.784 1.026-1.026c0.441-0.25 0.938-0.375 1.49-0.375 0.508 0 0.96 0.114 1.357 0.342 0.405 0.228 0.725 0.563 0.96 1.004 0.243 0.434 0.364 0.967 0.364 1.6 0 0.625-0.118 1.159-0.353 1.6s-0.555 0.78-0.96 1.015c-0.397 0.228-0.853 0.342-1.368 0.342zM24.548 22.154c0.412 0 0.78-0.092 1.104-0.276 0.331-0.191 0.589-0.456 0.772-0.795 0.191-0.346 0.287-0.743 0.287-1.192 0-0.456-0.096-0.853-0.287-1.192-0.184-0.338-0.441-0.6-0.772-0.784-0.324-0.191-0.692-0.287-1.104-0.287-0.405 0-0.769 0.096-1.093 0.287-0.324 0.184-0.581 0.445-0.772 0.784s-0.287 0.736-0.287 1.192c0 0.449 0.096 0.846 0.287 1.192 0.191 0.338 0.449 0.603 0.772 0.795 0.324 0.184 0.688 0.276 1.093 0.276zM26.733 22.795v-1.744l0.077-1.17-0.11-1.17v-4.105h0.784v8.188h-0.75zM29.666 22.795v-5.794h0.784v5.794h-0.784zM30.063 15.721c-0.162 0-0.298-0.055-0.408-0.166s-0.166-0.243-0.166-0.397c0-0.154 0.055-0.283 0.166-0.386 0.11-0.11 0.246-0.166 0.408-0.166s0.298 0.052 0.408 0.155c0.11 0.103 0.166 0.232 0.166 0.386 0 0.162-0.055 0.298-0.166 0.408-0.103 0.11-0.239 0.166-0.408 0.166zM35.587 16.946c0.471 0 0.883 0.092 1.236 0.276 0.361 0.177 0.64 0.449 0.839 0.817 0.206 0.368 0.309 0.831 0.309 1.39v3.366h-0.783v-3.288c0-0.611-0.155-1.070-0.464-1.379-0.302-0.316-0.728-0.475-1.28-0.475-0.412 0-0.772 0.085-1.081 0.254-0.302 0.162-0.537 0.401-0.706 0.717-0.162 0.309-0.243 0.684-0.243 1.126v3.046h-0.784v-5.794h0.75v1.589l-0.121-0.298c0.184-0.419 0.478-0.747 0.883-0.982 0.405-0.243 0.886-0.364 1.446-0.364zM40.087 22.795v-5.794h0.783v5.794h-0.783zM40.484 15.721c-0.162 0-0.298-0.055-0.408-0.166s-0.166-0.243-0.166-0.397c0-0.154 0.055-0.283 0.166-0.386 0.11-0.11 0.246-0.166 0.408-0.166s0.298 0.052 0.408 0.155c0.11 0.103 0.166 0.232 0.166 0.386 0 0.162-0.055 0.298-0.166 0.408-0.103 0.11-0.239 0.166-0.408 0.166zM41.98 22.795l3.532-7.725h0.805l3.531 7.725h-0.861l-3.244-7.25h0.331l-3.244 7.25h-0.85zM43.37 20.731l0.243-0.662h4.492l0.242 0.662h-4.977z"></path>
</symbol>
<symbol id="icon-beach" viewBox="0 0 32 32">
<path d="M24.308 24.424h-3.169c-0.352 0-0.637 0.285-0.637 0.637s0.285 0.637 0.637 0.637h3.169c0.352 0 0.637-0.285 0.637-0.637s-0.285-0.637-0.637-0.637z"></path>
<path d="M18.973 24.424h-12.020c-0.352 0-0.637 0.285-0.637 0.637s0.285 0.637 0.637 0.637h12.020c0.352 0 0.637-0.285 0.637-0.637s-0.285-0.637-0.637-0.637z"></path>
<path d="M24.308 27.482h-0.948c-0.352 0-0.637 0.285-0.637 0.637s0.285 0.637 0.637 0.637h0.948c0.352 0 0.637-0.285 0.637-0.637s-0.285-0.637-0.637-0.637z"></path>
<path d="M12.098 27.482h-1.489c-0.352 0-0.637 0.285-0.637 0.637s0.285 0.637 0.637 0.637h1.489c0.352 0 0.637-0.285 0.637-0.637s-0.285-0.637-0.637-0.637z"></path>
<path d="M8.442 27.482h-1.426c-0.352 0-0.637 0.285-0.637 0.637s0.285 0.637 0.637 0.637h1.426c0.352 0 0.637-0.285 0.637-0.637s-0.285-0.637-0.637-0.637z"></path>
<path d="M21.194 27.482h-6.93c-0.352 0-0.637 0.285-0.637 0.637s0.285 0.637 0.637 0.637h6.93c0.352 0 0.637-0.285 0.637-0.637s-0.285-0.637-0.637-0.637z"></path>
<path d="M29.105 21.366h-1.703v-5.239c0.847 0.27 1.462 1.064 1.462 2 0 0.352 0.285 0.637 0.637 0.637s0.637-0.285 0.637-0.637c0-1.225-0.656-2.299-1.636-2.89 0.601-0.056 1.222 0.145 1.681 0.605 0.249 0.249 0.652 0.249 0.901 0s0.249-0.652 0-0.901c-1.038-1.038-2.589-1.256-3.843-0.656 0.062-0.793 0.573-1.517 1.366-1.809 0.33-0.122 0.499-0.488 0.377-0.818s-0.488-0.499-0.818-0.377c-1.263 0.466-2.080 1.612-2.193 2.871-0.362-0.13-0.748-0.198-1.144-0.198-0.901 0-1.748 0.351-2.385 0.989-0.249 0.249-0.249 0.652 0 0.901s0.652 0.249 0.901 0c0.397-0.397 0.924-0.616 1.484-0.616 0.067 0 0.134 0.003 0.2 0.010-0.981 0.591-1.638 1.666-1.638 2.891 0 0.352 0.285 0.637 0.637 0.637s0.637-0.285 0.637-0.637c0-0.935 0.615-1.729 1.462-2v5.239h-6.943v-12.855c2.578 0.272 4.582 2.173 4.582 4.472 0 0.352 0.285 0.637 0.637 0.637s0.637-0.285 0.637-0.637c0-2.623-1.972-4.843-4.666-5.548 1.964-0.842 4.404-0.549 6.034 0.882 0.121 0.106 0.271 0.158 0.42 0.158 0.177 0 0.353-0.073 0.479-0.217 0.232-0.264 0.206-0.667-0.058-0.899-1.223-1.075-2.844-1.667-4.562-1.667-1.123 0-2.203 0.254-3.159 0.729 0.062-0.864-0.093-1.735-0.468-2.552-0.691-1.506-2.072-2.689-3.791-3.245-0.335-0.108-0.694 0.075-0.803 0.41s0.075 0.694 0.41 0.802c1.38 0.447 2.483 1.382 3.025 2.564 0.349 0.76 0.448 1.582 0.297 2.38-1.099-0.707-2.414-1.089-3.794-1.089-1.718 0-3.338 0.592-4.562 1.667-0.264 0.232-0.29 0.635-0.058 0.899s0.635 0.29 0.899 0.058c1.63-1.431 4.070-1.724 6.034-0.882-2.693 0.705-4.666 2.925-4.666 5.548 0 0.352 0.285 0.637 0.637 0.637s0.637-0.285 0.637-0.637c0-2.299 2.004-4.2 4.582-4.472v12.39c-0.54-3.976-3.956-7.051-8.078-7.051-4.303 0-7.837 3.35-8.132 7.579-0.945 0.233-1.648 1.087-1.648 2.103 0 1.194 0.972 2.166 2.166 2.166h1.532c0.492 0 0.892 0.4 0.892 0.892s-0.4 0.892-0.892 0.892h-0.067c-1.194 0-2.166 0.972-2.166 2.166s0.972 2.166 2.166 2.166h23.956c1.194 0 2.166-0.972 2.166-2.166s-0.972-2.166-2.166-2.166h-0.51c-0.492 0-0.892-0.4-0.892-0.892s0.4-0.892 0.892-0.892h1.975c1.194 0 2.166-0.972 2.166-2.166s-0.972-2.166-2.166-2.166zM9.833 15.124c3.578 0 6.526 2.746 6.849 6.242h-13.698c0.322-3.495 3.271-6.242 6.849-6.242zM29.105 24.424h-1.975c-1.194 0-2.166 0.972-2.166 2.166s0.972 2.166 2.166 2.166h0.51c0.492 0 0.892 0.4 0.892 0.892s-0.4 0.892-0.892 0.892h-23.956c-0.492 0-0.892-0.4-0.892-0.892s0.4-0.892 0.892-0.892h0.067c1.194 0 2.166-0.972 2.166-2.166s-0.972-2.166-2.166-2.166h-1.532c-0.492 0-0.892-0.4-0.892-0.892s0.4-0.892 0.892-0.892h26.886c0.492 0 0.892 0.4 0.892 0.892s-0.4 0.892-0.892 0.892z"></path>
</symbol>
<symbol id="icon-camera" viewBox="0 0 32 32">
<path d="M20.69 8.056c-4.853 0-8.801 3.948-8.801 8.801s3.948 8.801 8.801 8.801c4.853 0 8.801-3.948 8.801-8.801s-3.948-8.801-8.801-8.801zM20.69 24.662c-4.304 0-7.805-3.501-7.805-7.805s3.501-7.805 7.805-7.805c4.304 0 7.805 3.501 7.805 7.805s-3.501 7.805-7.805 7.805z"></path>
<path d="M24.676 16.857c0-2.198-1.788-3.985-3.985-3.985s-3.985 1.788-3.985 3.985c0 2.198 1.788 3.985 3.985 3.985s3.985-1.788 3.985-3.985zM17.701 16.857c0-1.648 1.341-2.989 2.989-2.989s2.989 1.341 2.989 2.989c0 1.648-1.341 2.989-2.989 2.989s-2.989-1.341-2.989-2.989z"></path>
<path d="M28.993 6.063h-17.893v-1.495c0-0.275-0.223-0.498-0.498-0.498h-5.854c-0.275 0-0.498 0.223-0.498 0.498v1.495h-1.495c-1.374 0-2.491 1.117-2.491 2.491v16.606c0 1.374 1.117 2.491 2.491 2.491h26.238c1.373 0 2.491-1.117 2.491-2.491v-16.606c0-1.374-1.117-2.491-2.491-2.491zM5.246 5.067h4.857v0.996h-4.857v-0.996zM30.488 25.16c0 0.824-0.67 1.495-1.495 1.495h-26.238c-0.824 0-1.495-0.67-1.495-1.495v-16.606c0-0.824 0.67-1.495 1.495-1.495h26.238c0.824 0 1.495 0.67 1.495 1.495v16.606z"></path>
<path d="M20.69 10.049c-1.444 0-2.824 0.448-3.992 1.297-0.223 0.162-0.272 0.473-0.11 0.696s0.473 0.272 0.696 0.11c0.997-0.724 2.175-1.107 3.407-1.107 3.205 0 5.812 2.607 5.812 5.812s-2.607 5.812-5.812 5.812c-3.205 0-5.812-2.607-5.812-5.812 0-1.232 0.383-2.41 1.107-3.407 0.162-0.223 0.112-0.534-0.11-0.696s-0.534-0.112-0.696 0.11c-0.848 1.168-1.297 2.549-1.297 3.992 0 3.754 3.054 6.809 6.809 6.809s6.809-3.054 6.809-6.809c0-3.754-3.054-6.809-6.809-6.809z"></path>
<path d="M9.398 8.056h-5.314c-1.007 0-1.827 0.819-1.827 1.827s0.819 1.827 1.827 1.827h5.314c1.007 0 1.827-0.819 1.827-1.827s-0.819-1.827-1.827-1.827zM9.398 10.713h-5.314c-0.458 0-0.83-0.372-0.83-0.83s0.372-0.83 0.83-0.83h5.314c0.458 0 0.83 0.372 0.83 0.83s-0.372 0.83-0.83 0.83z"></path>
</symbol>
<symbol id="icon-restaurant" viewBox="0 0 32 32">
<path d="M16.375 8.901c-4.035 0-7.317 3.282-7.317 7.317s3.283 7.317 7.317 7.317c4.035 0 7.317-3.282 7.317-7.317s-3.282-7.317-7.317-7.317zM16.375 22.56c-3.497 0-6.341-2.845-6.341-6.341s2.845-6.341 6.341-6.341c3.497 0 6.341 2.845 6.341 6.341s-2.845 6.341-6.341 6.341z"></path>
<path d="M16.375 5.487c-5.918 0-10.732 4.814-10.732 10.732s4.814 10.731 10.732 10.731c5.918 0 10.732-4.814 10.732-10.731s-4.814-10.732-10.732-10.732zM16.375 25.975c-5.38 0-9.756-4.377-9.756-9.756s4.377-9.756 9.756-9.756c5.38 0 9.756 4.377 9.756 9.756s-4.377 9.756-9.756 9.756z"></path>
<path d="M31.009 0.609c-0.797 0-1.484 0.595-1.596 1.384l-1.813 12.692c-0.021 0.152 0.029 0.305 0.137 0.413l0.833 0.837v14.429c0 0.807 0.657 1.463 1.463 1.463s1.463-0.657 1.463-1.463v-29.268c0-0.269-0.219-0.487-0.488-0.487zM30.522 30.365c0 0.269-0.219 0.488-0.488 0.488s-0.488-0.219-0.488-0.488v-14.631c0-0.129-0.051-0.253-0.142-0.344l-0.804-0.807 1.779-12.451c0.018-0.12 0.068-0.23 0.143-0.318l0 28.552z"></path>
<path d="M7.107 7.81v-6.714c0-0.244-0.181-0.452-0.424-0.483-0.243-0.033-0.471 0.12-0.535 0.357l-1.157 4.297-0.82-4.262c-0.044-0.23-0.245-0.396-0.479-0.396s-0.435 0.166-0.479 0.396l-0.82 4.262-1.157-4.298c-0.064-0.237-0.293-0.389-0.535-0.357s-0.424 0.239-0.424 0.484v6.714c0 0.859 0.477 1.631 1.245 2.015 0.435 0.217 0.706 0.655 0.706 1.142v19.345c0 0.739 0.525 1.382 1.221 1.496 0.080 0.013 0.16 0.020 0.24 0.020 0.347 0 0.684-0.121 0.95-0.348 0.328-0.279 0.516-0.685 0.516-1.115v-19.397c0-0.487 0.271-0.925 0.706-1.142 0.768-0.384 1.245-1.156 1.245-2.015zM5.426 8.953c-0.768 0.384-1.245 1.156-1.245 2.015v19.397c0 0.143-0.062 0.279-0.172 0.372-0.111 0.094-0.254 0.132-0.401 0.109-0.225-0.037-0.402-0.271-0.402-0.533v-19.345c0-0.859-0.477-1.631-1.245-2.015-0.435-0.218-0.706-0.656-0.706-1.142v-3.025l0.748 2.78c0.059 0.22 0.257 0.363 0.489 0.361 0.227-0.008 0.418-0.172 0.461-0.396l0.741-3.851 0.74 3.851c0.043 0.223 0.234 0.387 0.461 0.396 0.226 0.003 0.43-0.141 0.489-0.361l0.749-2.78v3.026c0 0.486-0.271 0.924-0.706 1.142z"></path>
<path d="M16.376 18.657h-0.976v0.976h0.976v-0.976z"></path>
<path d="M18.327 18.657h-0.976v0.976h0.976v-0.976z"></path>
<path d="M20.278 18.657h-0.976v0.976h0.976v-0.976z"></path>
</symbol>
<symbol id="icon-nature" viewBox="0 0 32 32">
<path d="M29.28 28.631h-28.176c-0.179 0-0.355-0.046-0.511-0.135s-0.287-0.215-0.379-0.369c-0.092-0.154-0.144-0.328-0.148-0.507s0.037-0.357 0.12-0.515l7.63-14.449c0.079-0.15 0.194-0.279 0.335-0.375s0.303-0.155 0.472-0.174c0.169-0.018 0.34 0.005 0.498 0.068s0.298 0.164 0.408 0.294l4.53 5.354 5.801-8.628c0.102-0.152 0.243-0.274 0.407-0.355s0.348-0.116 0.53-0.102 0.359 0.074 0.51 0.177c0.151 0.103 0.273 0.244 0.352 0.409l8.558 17.817c0.076 0.159 0.11 0.334 0.1 0.509s-0.065 0.346-0.158 0.494c-0.094 0.149-0.223 0.271-0.377 0.356s-0.327 0.13-0.502 0.13zM1.808 27.168h26.799l-7.945-16.542-5.928 8.818c-0.063 0.094-0.147 0.172-0.246 0.228s-0.208 0.088-0.321 0.095c-0.113 0.006-0.226-0.014-0.33-0.059s-0.196-0.113-0.269-0.199l-4.75-5.614-7.009 13.273z"></path>
<path d="M26.776 12.397c-0.891-0-1.763-0.265-2.504-0.76s-1.319-1.199-1.66-2.023c-0.341-0.824-0.43-1.73-0.256-2.604s0.603-1.677 1.233-2.308c0.63-0.63 1.433-1.060 2.308-1.234s1.781-0.085 2.604 0.256c0.824 0.341 1.528 0.918 2.023 1.659s0.76 1.612 0.761 2.504c-0.001 1.196-0.477 2.342-1.322 3.187s-1.992 1.321-3.187 1.322zM26.776 4.841c-0.706-0.001-1.39 0.243-1.936 0.69s-0.921 1.070-1.059 1.762c-0.139 0.692-0.033 1.411 0.299 2.034s0.87 1.111 1.522 1.382c0.652 0.271 1.377 0.307 2.053 0.102s1.259-0.637 1.652-1.224c0.392-0.587 0.569-1.291 0.5-1.994s-0.379-1.359-0.879-1.859c-0.571-0.571-1.345-0.893-2.153-0.894z"></path>
</symbol>
<symbol id="icon-arrow" viewBox="0 0 26 32">
<path d="M1.061 26.347l14.19-10.347-14.19-10.347c-1.426-1.040-1.426-2.72 0-3.76s3.73-1.040 5.157 0l16.786 12.24c1.426 1.040 1.426 2.72 0 3.76l-16.786 12.24c-1.426 1.040-3.73 1.040-5.157 0-1.39-1.040-1.426-2.747 0-3.787z"></path>
</symbol>
</defs>
</svg>
